<?xml version="1.0" encoding="UTF-8"?>
<svg id="Layer_1" xmlns="http://www.w3.org/2000/svg" version="1.1" viewBox="0 0 214.7 214.7">
  <!-- Generator: Adobe Illustrator 29.1.0, SVG Export Plug-In . SVG Version: 2.1.0 Build 142)  -->
  <defs>
    <style>
      .st0 {
        fill: none;
        stroke: #a37f41;
        stroke-width: 3.5px;
      }

      .st0, .st1 {
        stroke-miterlimit: 10;
      }

      .st1 {
        fill: #fff;
        stroke: #fff;
      }
    </style>
  </defs>
  <path id="Path_37" class="st0" d="M33,168.4C-1,127.6,4.6,67,45.4,33,86.2-1,146.8,4.7,180.7,45.5c33.9,40.8,28.4,101.4-12.4,135.3h-.1c-40.7,34-101.2,28.4-135.1-12.3h0"/>
  <g>
    <path class="st1" d="M138.1,135.7c-1.9,2.5-5.2,3.2-8.1,1.7-3.1-1.6-4.5-5-3.2-8.4,2.7-7.7,5.6-15.4,8.4-23.1.4-1.2.8-2.4,1.3-3.5,1.3-2.8,4-4.3,7-3.9,2.9.4,5.2,2.6,5.8,5.6.1.7.4,1.3.7,1.9,3.6-15.9-6.8-39.5-31.4-44.4-18.7-3.7-42.3,9.9-44.3,25.9h37.3c7.9,0,12.6,4.7,12.6,12.6v25.1c0,8-4.7,12.6-12.8,12.6h-6.6v6.9c0,2.3-.3,4.4-2.6,5.5-2.3,1.1-4.1,0-5.9-1.5-3.5-3.1-7.1-6-10.5-9.1-1.5-1.4-3.1-2.1-5.1-1.8-.6.1-1.3.2-1.9-.1s-1.4-.9-1.4-1.4.8-1.5,1.3-1.5c3.2-.1,6.2-.6,9,2.1,3.4,3.5,7.4,6.5,11.2,9.6.5.4,1.5.9,2,.6.5-.2.8-1.2.8-1.9,0-2.7,0-5.5,0-8.2,0-1.7.6-2.4,2.4-2.4,2.7.1,5.3,0,8,0,5.6-.1,9-3.6,9-9.2v-25.7c0-5.6-3.4-9.1-9-9.1h-43.6c-5.5,0-8.9,3.5-8.9,9v26.1c0,5.3,3.5,8.8,8.8,8.9,1,0,2-.2,2.9.1.6.2,1.1,1,1.7,1.5-.5.5-1,1.4-1.5,1.4-10,1.3-15.3-4.8-15.2-12.5,0-8.4,0-16.9,0-25.3s2-8.8,6.4-11.2c.6-.4,1.2-1.2,1.4-1.9,6.4-19.4,19.6-31.2,39.7-34.9,25.7-4.7,52,14.3,56.1,40.1,1.4,9.1.4,17.9-2.5,26.5-.2.5-.2,1.1-.6,1.3-.5.4-1.3.9-1.7.8-.5-.3-1-1.1-1.1-1.7-.1-.5.3-1.2.5-1.8.7-2,.2-3.6-1.4-4.9-1.4-1.1-2.8-2.1-4.4-3.3-2.9,7.8-5.6,15.5-8.6,23.7,2.5,0,4.7.3,6.8-.1,1.1-.2,2.2-1.5,3-2.6s.9-2.7,1.6-3.9c.4-.6,1.3-.8,2-1.2.3.7,1,1.5.8,2.1-1,2.8-1.5,5.9-4.2,7.8-.5.4-.8,1.1-1.1,1.7-1.3,3-2.4,6.1-3.7,9.2-2.7,6.4-7.7,9.6-14.6,9.8h-2.3c-2.3-.1-4.3.2-6.2,2-3.3,3.1-8.7,2.3-11.7-1.2-2.9-3.5-2.7-8.7.6-11.8,3.3-3.2,8.6-3.4,11.8-.1,1.2,1.2,2.5,1.5,4.1,1.5,8-.1,8.1,0,11-7.5,0-.8,0-1.7.1-2.5h0c0,.1,0,0,0,0ZM67.4,87.3q3.1.3,3.8-1.5c7.7-19.9,26.9-30.9,47.9-27.4,21.7,3.6,37.7,25.3,34.7,47.1-.5,3.4-.4,3.5,2.4,4.7,5.9-24.7-10.3-49.8-36-54.9-27.7-5.4-48.2,14-52.8,32ZM146.3,105.5c0-2.1-1.2-3.5-3-3.8s-3.4.6-4.1,2.5c-3.2,8.6-6.3,17.2-9.4,25.8-.2.7-.3,1.5-.2,2.2.4,1.7,1.6,2.7,3.3,2.8,1.9.1,3.1-1,3.7-2.8,3.1-8.5,6.2-17,9.2-25.4.3-.5.4-1.1.5-1.3ZM122.3,150.4c0-3-2.5-5.5-5.5-5.4-3,0-5.5,2.6-5.4,5.5,0,3,2.5,5.4,5.5,5.4s5.4-2.5,5.4-5.5ZM125.6,152c2.2,0,4.3.1,6.3,0,4.2-.3,7.5-2.2,9.4-5.8,1.7-3.2,2.9-6.6,4.3-10q-3.4-.7-4.5,2.1c-.6,1.5-1.2,3-1.8,4.5-1.6,4.1-4.6,6-8.9,6h-4.8c0,1.2,0,2.1,0,3.2Z"/>
    <path class="st1" d="M90.1,116.1h-20.4c-.6,0-1.2,0-1.7,0-.5-.3-1.2-.9-1.2-1.5s.6-1.2,1.1-1.5,1.2-.2,1.9-.2h40.8c.4,0,.8,0,1,0,.7.5,1.9,1,2,1.6.2,1.3-1,1.6-2.1,1.6-7.1,0-14.3,0-21.4,0Z"/>
    <path class="st1" d="M90.2,105.2h20.4c.6,0,1.4,0,1.9,0,.5.3,1.2.9,1.2,1.5s-.6,1.2-1.1,1.5-1.2.2-1.9.2h-41c-1.2,0-2.8.2-2.9-1.6,0-1.8,1.5-1.7,2.8-1.7h20.6Z"/>
    <path class="st1" d="M86.7,120.7h17.3c1.2,0,2.5,0,2.5,1.5s-1.2,1.6-2.4,1.6h-35c-1.2,0-2.5,0-2.4-1.6,0-1.6,1.4-1.5,2.5-1.5h17.5Z"/>
    <path class="st1" d="M138.1,135.7h0q0,.1,0,0h0Z"/>
  </g>
</svg>