<?xml version="1.0" encoding="UTF-8"?>
<svg id="Capa_1" data-name="Capa 1" xmlns="http://www.w3.org/2000/svg" viewBox="0 0 19.59 14.69">
  <defs>
    <style>
      .cls-1 {
        fill: #010101;
        stroke-width: 0px;
      }
    </style>
  </defs>
  <path class="cls-1" d="M18.36,14.69H1.22c-.32,0-.63-.12-.86-.35C.13,14.11,0,13.79,0,13.47V1.23c0-.32.13-.64.36-.86C.59.13.9,0,1.22,0h17.14c.33,0,.64.13.87.36.23.23.36.54.35.86v12.24c0,.67-.53,1.22-1.19,1.22-.01,0-.02,0-.03,0M18.36,1.22H1.22v12.24h17.14V1.23h0ZM4.9,3.67l11.02,6.12,1.22-1.22v3.67h-3.67l1.22-1.22L3.67,4.9l-1.22,1.22v-3.67h3.67l-1.22,1.22Z"/>
</svg>