<?xml version="1.0" encoding="UTF-8"?>
<svg id="Capa_1" data-name="Capa 1" xmlns="http://www.w3.org/2000/svg" viewBox="0 0 18 17.82">
  <defs>
    <style>
      .cls-1 {
        fill: #040506;
        stroke-width: 0px;
      }
    </style>
  </defs>
  <path class="cls-1" d="M15.21,7.24l2.79-1.71L9.01,0,0,5.48l2.8,1.71-2.8,1.72,2.79,1.7-2.79,1.7,9.03,5.51,8.96-5.46-2.78-1.72,2.78-1.69-2.79-1.72ZM1.47,5.49L9.01.89l7.52,4.64-2.04,1.25-.74.45-2.05,1.25-.74.44-1.93,1.19-1.97-1.2-.74-.46-2.06-1.26-.73-.44-2.07-1.26ZM16.53,12.36l-7.49,4.56L1.47,12.31l2.06-1.25,5.51,3.35,5.45-3.32,2.05,1.26Z"/>
</svg>