<?xml version="1.0" encoding="utf-8"?>
<!-- Generator: Adobe Illustrator 28.1.0, SVG Export Plug-In . SVG Version: 6.00 Build 0)  -->
<svg version="1.1" id="Capa_1" xmlns="http://www.w3.org/2000/svg" xmlns:xlink="http://www.w3.org/1999/xlink" x="0px" y="0px"
	 viewBox="0 0 224.7 59" style="enable-background:new 0 0 224.7 59;" xml:space="preserve">
<style type="text/css">
	.st0{fill-rule:evenodd;clip-rule:evenodd;fill:#FFFFFF;}
</style>
<g>
	<g>
		<path class="st0" d="M172.3,40.2c-4.3,0-7.8-3.5-7.8-7.8c0-4.3,3.5-7.9,7.8-7.9c4.3,0,7.9,3.5,7.9,7.9
			C180.2,36.7,176.6,40.2,172.3,40.2L172.3,40.2z M172.3,14.1c-10.1,0-18.3,8.2-18.3,18.3c0,10.1,8.2,18.3,18.3,18.3
			c10.1,0,18.3-8.2,18.3-18.3C190.6,22.3,182.4,14.1,172.3,14.1z"/>
		<path class="st0" d="M145.6,14.1c-4.3,0-7.8,3.5-7.8,7.8c0,4.3,3.5,7.9,7.8,7.9c4.3,0,7.9-3.5,7.9-7.9
			C153.5,17.6,150,14.1,145.6,14.1z"/>
		<path class="st0" d="M111.8,28.5c0.1-3.6-2.7-6.5-6.5-6.5c-4.7,0-7.3,3.2-7.5,6.5H111.8L111.8,28.5z M120.8,43.7
			c-3.4,4.3-9,6.8-14.6,6.8C95.5,50.5,87,43.4,87,32.4c0-11,8.5-18.2,19.2-18.2c10,0,16.2,7.1,16.2,18.2v3.3H97.7
			c0.9,4.1,3.9,6.7,8,6.7c3.5,0,5.8-1.8,7.6-4.2L120.8,43.7z"/>
		<rect x="127.9" y="15.1" class="st0" width="10.7" height="34.6"/>
	</g>
	<path class="st0" d="M84.3,26.1C84.3,12,72.9,0.6,58.8,0.6C44.8,0.6,33.4,12,33.4,26.1c0,14.1,11.4,25.5,25.5,25.5
		c2.9,0,5.7-0.5,8.3-1.4l6.9,8.8l9.2-7.2l-6.2-7.9C81.5,39.2,84.3,33,84.3,26.1z M58.7,8.4C67,8.4,74.1,14,76,22.1l0.1,0.3l3.3-0.4
		l-5.1,6.4l-2.6-2.1v0l-3.8-3.1l4-0.4l-0.1-0.4c-1.6-5.9-7-10-13.1-10c-6.5,0-12,4.5-13.3,10.7l-1.6-2c-0.1-0.1-0.2-0.1-0.3-0.1
		c-0.1,0-0.2,0-0.3,0.1l-1.9,1.6C42.9,14.5,50.2,8.4,58.7,8.4z M58.7,44.2c-9.2,0-17-7.2-17.7-16.3l0-0.3L37,27.2l6.4-5.1l2.3,2.9v0
		l2.8,3.5l-3.4-0.4l0.1,0.4c1,6.6,6.8,11.6,13.5,11.6c7,0,12.8-5.3,13.6-12.2l1.8,1.5c0,0,0.1,0.1,0.1,0.1c0,0,0,0,0,0
		c0,0,0.1,0,0.1,0h0c0.1,0,0.2-0.1,0.3-0.2l1.8-2.3C76.2,36.5,68.3,44.2,58.7,44.2z"/>
</g>
</svg>
