<?xml version="1.0" encoding="UTF-8"?>
<svg id="Capa_1" data-name="Capa 1" xmlns="http://www.w3.org/2000/svg" viewBox="0 0 15.19 16.88">
  <defs>
    <style>
      .cls-1 {
        fill: #010101;
        stroke-width: 0px;
      }
    </style>
  </defs>
  <rect class="cls-1" x="9" y=".84" width="1.12" height="1.12"/>
  <rect class="cls-1" x="11.53" y=".84" width="1.12" height="1.12"/>
  <rect class="cls-1" x="9" y="14.91" width="1.12" height="1.12"/>
  <rect class="cls-1" x="11.53" y="14.91" width="1.12" height="1.12"/>
  <rect class="cls-1" x="14.06" y=".84" width="1.12" height="1.12"/>
  <rect class="cls-1" x="14.06" y="3.14" width="1.12" height="1.18"/>
  <rect class="cls-1" x="14.06" y="5.5" width="1.12" height="1.18"/>
  <rect class="cls-1" x="14.06" y="12.55" width="1.12" height="1.18"/>
  <rect class="cls-1" x="14.06" y="7.85" width="1.12" height="1.18"/>
  <rect class="cls-1" x="14.06" y="10.2" width="1.12" height="1.18"/>
  <rect class="cls-1" x="14.06" y="14.91" width="1.12" height="1.12"/>
  <path class="cls-1" d="M0,15.47c0,.31.25.56.56.56h5.91v.84h1.12V0h-1.12v.84H.56c-.31,0-.56.25-.56.56v14.06ZM1.12,1.97h5.34v12.94H1.12V1.97Z"/>
</svg>