<?xml version="1.0" encoding="UTF-8"?>
<svg id="Capa_1" data-name="Capa 1" xmlns="http://www.w3.org/2000/svg" viewBox="0 0 18 14.74">
  <defs>
    <style>
      .cls-1 {
        fill: #010101;
        stroke-width: 0px;
      }
    </style>
  </defs>
  <path class="cls-1" d="M16.39,9.83h1.61v1.65h-1.61v-1.65ZM16.39,6.56h1.61v1.61h-1.61v-1.61ZM18,13.09c0,.43-.19.84-.5,1.13-.28.32-.68.51-1.11.52v-1.65h1.61ZM9.83,0h1.65v1.65h-1.65V0ZM16.39,3.26h1.61v1.65h-1.61v-1.65ZM16.39,0c.43,0,.83.2,1.11.52.31.3.49.7.5,1.13h-1.61V0ZM0,3.26h1.65v1.65H0v-1.65ZM13.09,0h1.65v1.65h-1.65V0ZM13.09,13.09h1.65v1.65h-1.65v-1.65ZM1.65,0v1.65H0c0-.43.2-.84.52-1.13C.81.2,1.22,0,1.65,0M6.56,0h1.61v1.65h-1.61V0ZM3.26,0h1.65v1.65h-1.65V0ZM0,6.56h11.48v8.17H1.65c-.44,0-.86-.16-1.17-.48C.17,13.95,0,13.53,0,13.09v-6.52ZM1.65,13.09h8.17l-2.61-3.49-2.07,2.65-1.46-1.76-2.03,2.61Z"/>
</svg>