<?xml version="1.0" encoding="UTF-8"?>
<svg id="Capa_1" data-name="Capa 1" xmlns="http://www.w3.org/2000/svg" viewBox="0 0 18 17.64">
  <defs>
    <style>
      .cls-1 {
        fill: #040506;
        stroke-width: 0px;
      }
    </style>
  </defs>
  <path class="cls-1" d="M14.52,4.61l-2.02,1.33,1.62-2.53L8.81,0l-1.01,1.57V.09H0v17.55h17.7v-6.31h-1.91l2.2-1.46-3.48-5.27ZM6.74,15.69c0,.49-.4.88-.88.88H1.06V1.16h5.68v14.54ZM7.8,3.54l1.33-2.07,3.52,2.26-4.85,7.57V3.54ZM16.64,12.39v4.19H7.86l6.33-4.19h2.45ZM7.8,15.34v-2.07l3.28-5.12,3.13-2.07,2.31,3.49-8.72,5.77Z"/>
  <path class="cls-1" d="M3.39,15.9c.65,0,1.18-.53,1.18-1.18s-.53-1.18-1.18-1.18-1.18.53-1.18,1.18h0c0,.65.53,1.18,1.18,1.18M3.39,14.46c.14,0,.26.12.26.26s-.12.26-.26.26-.26-.12-.26-.26c0-.14.12-.25.26-.26h0Z"/>
</svg>