<?xml version="1.0" encoding="utf-8"?>
<!-- Generator: Adobe Illustrator 28.1.0, SVG Export Plug-In . SVG Version: 6.00 Build 0)  -->
<svg version="1.1" id="Capa_1" xmlns="http://www.w3.org/2000/svg" xmlns:xlink="http://www.w3.org/1999/xlink" x="0px" y="0px"
	 viewBox="0 0 20.8 23" style="enable-background:new 0 0 20.8 23;" xml:space="preserve">
<style type="text/css">
	.st0{fill:#010202;stroke:#010202;stroke-width:0.25;stroke-miterlimit:10;}
	.st1{fill:#010101;}
	.st2{fill:#010202;}
</style>
<path class="st0" d="M20.1,3.6c-1-0.9-1.9-1.9-2.8-2.8c-0.3-0.3-0.7-0.5-1.1-0.5c-4.2,0-8.4,0-12.6,0c-0.9,0-1.3,0.4-1.3,1.3
	c0,3.1,0,6.3,0,9.4c0,0.5-0.1,0.6-0.6,0.6c-1,0-1.5,0.6-1.5,1.5v6.1c0,1,0.6,1.5,1.5,1.5h10.6c0.8,0,1.2-0.4,1.2-1.2V15
	c0-1-0.4-1.3-1.3-1.3H1.6c-0.6,0-0.9-0.5-0.7-1c0.2-0.5,0.7-0.4,1.1-0.5c0.4,0,0.3,0.2,0.3,0.4c0,0.2,0.2,0.3,0.3,0.3
	c0.2,0,0.3-0.1,0.3-0.3c0-0.1,0-0.3,0-0.4V1.6C3,1,3,1,3.5,1c4,0,8.1,0,12.2,0C15.9,1,16,1,16,1.3c0,0.9,0,1.8,0,2.6
	c0,0.7,0.2,0.9,0.9,0.9c0.8,0,1.7,0,2.5,0c0.3,0,0.4,0.1,0.4,0.4c0,5.4,0,10.8,0,16.1c0,0.7,0,0.7-0.7,0.7H3.5c-0.3,0-0.5,0-0.5-0.3
	c0-0.2-0.2-0.4-0.4-0.3c-0.3,0.1-0.3,0.3-0.2,0.5c0.1,0.5,0.5,0.8,1.1,0.8h15.9c0.8,0,1.2-0.4,1.2-1.2v-8.5c0-2.8,0-5.6,0-8.5
	C20.6,4.2,20.4,3.9,20.1,3.6z M0.9,14.1c0.4,0.2,0.8,0.2,1.1,0.2h10.2c0.6,0,0.7,0,0.7,0.6v4.4c0,0.5-0.1,0.6-0.6,0.6H1.7
	c-0.6,0-0.9-0.2-0.9-0.9V14.1z"/>
<path class="st1" d="M15.2,9.3c-0.4-0.1-0.7-0.1-1.2-0.2c-0.7,0.3-1-0.3-1.4-0.7c-0.3-0.4-0.6-0.8-0.9-1.2c-0.2-0.2-0.2-0.5-0.1-0.7
	c0.2-0.6,0.3-1.1,0.2-1.7c0-0.4-0.2-0.7-0.6-0.8c-0.4-0.1-0.7,0-1,0.3c-0.2,0.2-0.2,0.5-0.2,0.7c0,0.6,0.3,1,0.5,1.5
	c0.1,0.2,0.1,0.4,0,0.7C10.4,7.8,10.1,8.4,9.9,9c-0.2,0.6-0.6,1-1.2,1.1c-0.6,0.2-1.1,0.5-1.5,0.9C7,11.4,7,11.9,7.3,12.2
	c0.3,0.3,0.7,0.4,1.1,0.1c0.4-0.3,0.8-0.6,0.9-1c0.4-0.9,1.1-1.1,2-1.3c0.1,0,0.2,0,0.3-0.1c0.7-0.2,1.5-0.3,2.1,0.4
	c0.3,0.3,0.7,0.5,1.1,0.5c0.5,0,0.9-0.3,1-0.7C15.9,9.7,15.7,9.4,15.2,9.3z M8.2,11.4c-0.1,0.1-0.2,0.2-0.3,0.1
	c-0.1-0.1,0-0.3,0.1-0.4c0.3-0.3,0.6-0.4,1.1-0.6C8.7,10.9,8.5,11.2,8.2,11.4z M10.9,4.3c0.2,0,0.2,0.1,0.2,0.2c0,0.3,0,0.6-0.1,0.9
	c-0.2-0.3-0.3-0.6-0.3-0.9C10.7,4.5,10.8,4.4,10.9,4.3z M10.4,9.3c0.3-0.6,0.5-1.3,0.8-1.9c0.4,0.5,0.8,1,1.2,1.6
	C11.7,9,11.1,9.2,10.4,9.3z M14.8,10c-0.3-0.1-0.5-0.2-0.8-0.4c0.3-0.1,0.6,0,0.9,0.1c0.1,0,0.3,0,0.2,0.2C15.1,9.9,15,10,14.8,10z"
	/>
<path class="st2" d="M8.3,16.3c-0.3-0.6-0.8-0.8-1.4-0.8c-0.2,0-0.3,0-0.3,0C6.1,15.4,5.9,15.6,6,16c0,0.8,0,1.6,0,2.4
	c0,0.2,0,0.3,0.2,0.4c0.5,0.2,1.7,0,2-0.5C8.6,17.6,8.6,16.9,8.3,16.3z M7.8,17.5c-0.1,0.5-0.4,0.7-0.9,0.7c-0.2,0-0.3-0.1-0.3-0.3
	c0-0.2,0-0.5,0-0.7c0,0,0,0,0,0c0-0.2,0-0.3,0-0.5c0-0.6,0.3-0.7,0.8-0.5C7.7,16.4,7.9,17,7.8,17.5z"/>
<path class="st2" d="M4.4,15.5c-0.3-0.1-0.7-0.1-1,0c-0.3,0-0.4,0.2-0.4,0.4c0,0.4,0,0.8,0,1.3c0,0.4,0,0.7,0,1.1
	c0,0.3-0.1,0.7,0.3,0.7c0.4,0,0.3-0.4,0.3-0.7c0-0.4,0-0.6,0.5-0.6c0.6,0,1-0.4,1.1-1C5.3,16.1,4.9,15.6,4.4,15.5z M4,17
	c-0.5,0-0.3-0.3-0.3-0.5c0-0.3-0.1-0.5,0.3-0.5c0.3,0,0.6,0.1,0.6,0.5C4.6,16.9,4.3,17,4,17z"/>
<path class="st2" d="M9.8,16.7c0.1,0.2,0.2,0.1,0.3,0.1c0.3,0.1,0.7-0.1,0.7,0.3c0,0.5-0.5,0.3-0.7,0.3c-0.3,0-0.3,0.1-0.3,0.3
	c0,0.2,0,0.4,0,0.7c0,0.2-0.1,0.4-0.3,0.5c-0.3,0-0.3-0.2-0.3-0.5v-1.3c0-0.4,0-0.8,0-1.2c0-0.3,0.2-0.5,0.5-0.5c0.3,0,0.6,0,1,0
	c0.2,0,0.3,0.1,0.3,0.3c0,0.2-0.1,0.3-0.4,0.3h-0.4C9.9,16.1,9.7,16.3,9.8,16.7z"/>
</svg>
