<?xml version="1.0" encoding="utf-8"?>
<!-- Generator: Adobe Illustrator 28.1.0, SVG Export Plug-In . SVG Version: 6.00 Build 0)  -->
<svg version="1.1" id="Capa_1" xmlns="http://www.w3.org/2000/svg" xmlns:xlink="http://www.w3.org/1999/xlink" x="0px" y="0px"
	 viewBox="0 0 19.6 14.7" style="enable-background:new 0 0 19.6 14.7;" xml:space="preserve">
<style type="text/css">
	.st0{fill:none;stroke:#010101;stroke-miterlimit:10;}
	.st1{fill:none;stroke:#010101;stroke-miterlimit:10;stroke-dasharray:2.01,2.01;}
</style>
<path class="st0" d="M24,14.7H1.1c-0.6,0-1.1-0.5-1.1-1.1V1.1C0,0.5,0.5,0,1.1,0H24c0.6,0,1.1,0.5,1.1,1.1v12.4
	C25.2,14.2,24.7,14.7,24,14.7z"/>
<g>
	<path class="st1" d="M20,12.4H5.2c-0.6,0-1.1-0.5-1.1-1.1V3.5c0-0.6,0.5-1.1,1.1-1.1H20c0.6,0,1.1,0.5,1.1,1.1v7.7
		C21.1,11.8,20.6,12.4,20,12.4z"/>
</g>
</svg>
