<?xml version="1.0" encoding="UTF-8"?>
<svg id="Capa_1" data-name="Capa 1" xmlns="http://www.w3.org/2000/svg" viewBox="0 0 24.36 24.36">
  <defs>
    <style>
      .cls-1 {
        stroke-width: 0px;
      }
    </style>
  </defs>
  <path class="cls-1" d="M0,18.7c.12-.14.22-.29.35-.42C6.32,12.3,12.3,6.32,18.28.35c.13-.13.28-.23.42-.35.08,0,.16,0,.24,0,.13.1.27.19.39.3,1.58,1.58,3.16,3.16,4.74,4.74.38.38.38.59,0,.98-6.02,6.02-12.03,12.03-18.05,18.05-.38.38-.59.38-.98,0-1.58-1.58-3.16-3.16-4.74-4.74C.19,19.21.1,19.06,0,18.93c0-.08,0-.16,0-.24ZM23.13,5.53c-1.43-1.43-2.88-2.88-4.31-4.31-.3.31-.63.63-.96.97.37.37.76.75,1.15,1.14.12.12.24.23.35.36.19.22.19.48,0,.67-.18.19-.46.19-.68,0-.07-.06-.14-.13-.2-.2-.44-.44-.87-.87-1.29-1.29-.34.34-.66.66-1.01,1.01.09.08.19.16.29.26.2.2.4.39.58.6.15.18.12.45-.04.61-.16.17-.41.19-.61.05-.08-.06-.16-.13-.23-.21-.22-.22-.44-.45-.63-.65-.35.35-.68.67-1.01,1,.45.45.92.91,1.38,1.38.07.07.13.14.18.22.12.2.08.44-.08.58-.15.14-.39.17-.57.05-.08-.06-.16-.13-.23-.2-.46-.46-.92-.92-1.35-1.35-.34.34-.66.66-1.01,1,.1.09.21.19.32.29.19.19.39.38.55.59.14.18.1.43-.05.59-.16.16-.4.19-.59.06-.08-.06-.16-.13-.23-.2-.23-.23-.46-.46-.65-.66-.34.34-.66.66-.99,1,.44.43.89.89,1.35,1.34.33.33.38.59.15.82-.23.23-.5.19-.82-.13-.46-.46-.92-.92-1.36-1.36-.34.33-.66.66-1,1,.25.24.51.49.77.75.22.22.25.45.1.66-.18.25-.5.27-.76.02-.27-.26-.52-.53-.75-.77-.34.34-.67.66-.99.99,0,0,0,0,.01.02.45.45.9.9,1.34,1.35.07.07.15.15.2.24.18.31-.03.72-.38.7-.15,0-.33-.11-.45-.22-.49-.46-.96-.95-1.41-1.41-.34.33-.66.65-1.01,1,.25.24.51.5.77.75.16.16.25.35.14.58-.15.32-.53.38-.81.11-.27-.26-.52-.53-.75-.77-.35.35-.67.67-1,1.01.22.22.47.46.71.7.27.27.54.53.8.81.18.2.16.47,0,.65-.18.18-.43.19-.65.03-.07-.05-.13-.12-.19-.18-.45-.45-.9-.91-1.34-1.34-.34.34-.66.66-1.02,1.02.08.07.19.15.29.24.19.18.38.36.55.56.15.17.17.37.04.57-.12.19-.31.26-.51.19-.11-.03-.22-.12-.31-.21-.25-.24-.49-.49-.69-.7-.35.34-.67.66-.98.96,1.43,1.43,2.87,2.87,4.3,4.3,5.87-5.87,11.74-11.74,17.61-17.61Z"/>
  <path class="cls-1" d="M8.29,18.72c-.04.06-.09.21-.19.31-.78.8-1.58,1.59-2.37,2.37-.25.25-.53.26-.73.05-.2-.2-.19-.48.05-.72.79-.8,1.59-1.59,2.39-2.39.16-.16.36-.24.58-.14.18.08.28.23.28.51Z"/>
  <path class="cls-1" d="M8.7,17.27c.26,0,.46.2.47.47,0,.26-.2.48-.45.48-.26,0-.46-.2-.47-.47,0-.27.19-.48.45-.48Z"/>
</svg>