<?xml version="1.0" encoding="utf-8"?>
<!-- Generator: Adobe Illustrator 28.1.0, SVG Export Plug-In . SVG Version: 6.00 Build 0)  -->
<svg version="1.1" id="Layer_1" xmlns="http://www.w3.org/2000/svg" xmlns:xlink="http://www.w3.org/1999/xlink" x="0px" y="0px"
	 viewBox="0 0 214.7 214.7" style="enable-background:new 0 0 214.7 214.7;" xml:space="preserve">
<style type="text/css">
	.st0{fill:none;stroke:#A37F41;stroke-width:1.5;stroke-miterlimit:10;}
	.st1{fill:#FFFFFF;}
</style>
<path id="Path_37" class="st0" d="M33,168.4C-1,127.6,4.6,67,45.4,33S146.8,4.7,180.7,45.5s28.4,101.4-12.4,135.3c0,0,0,0-0.1,0.1
	l0,0C127.5,214.8,67,209.2,33.1,168.5C33,168.4,33,168.4,33,168.4L33,168.4"/>
<g>
	<path class="st1" d="M138.1,135.7c-1.9,2.5-5.2,3.2-8.1,1.7c-3.1-1.6-4.5-5-3.2-8.4c2.7-7.7,5.6-15.4,8.4-23.1
		c0.4-1.2,0.8-2.4,1.3-3.5c1.3-2.8,4-4.3,7-3.9c2.9,0.4,5.2,2.6,5.8,5.6c0.1,0.7,0.4,1.3,0.7,1.9c3.6-15.9-6.8-39.5-31.4-44.4
		c-18.7-3.7-42.3,9.9-44.3,25.9c0.8,0,1.5,0,2.3,0c11.7,0,23.3,0,35,0c7.9,0,12.6,4.7,12.6,12.6c0,8.4,0,16.7,0,25.1
		c0,8-4.7,12.6-12.8,12.6c-2.1,0-4.2,0-6.6,0c0,2.4,0,4.7,0,6.9c0,2.3-0.3,4.4-2.6,5.5c-2.3,1.1-4.1,0-5.9-1.5
		c-3.5-3.1-7.1-6-10.5-9.1c-1.5-1.4-3.1-2.1-5.1-1.8c-0.6,0.1-1.3,0.2-1.9-0.1c-0.6-0.3-1.4-0.9-1.4-1.4c0-0.5,0.8-1.5,1.3-1.5
		c3.2-0.1,6.2-0.6,9,2.1c3.4,3.5,7.4,6.5,11.2,9.6c0.5,0.4,1.5,0.9,2,0.6c0.5-0.2,0.8-1.2,0.8-1.9c0.1-2.7,0.1-5.5,0-8.2
		c0-1.7,0.6-2.4,2.4-2.4c2.7,0.1,5.3,0,8,0c5.6-0.1,9-3.6,9-9.2c0-8.6,0-17.1,0-25.7c0-5.6-3.4-9.1-9-9.1c-14.5,0-29.1,0-43.6,0
		c-5.5,0-8.9,3.5-8.9,9c0,8.7,0,17.4,0,26.1c0,5.3,3.5,8.8,8.8,8.9c1,0,2-0.2,2.9,0.1c0.6,0.2,1.1,1,1.7,1.5c-0.5,0.5-1,1.4-1.5,1.4
		c-10,1.3-15.3-4.8-15.2-12.5c0.1-8.4,0-16.9,0-25.3c0-5,2-8.8,6.4-11.2c0.6-0.4,1.2-1.2,1.4-1.9c6.4-19.4,19.6-31.2,39.7-34.9
		c25.7-4.7,52,14.3,56.1,40.1c1.4,9.1,0.4,17.9-2.5,26.5c-0.2,0.5-0.2,1.1-0.6,1.3c-0.5,0.4-1.3,0.9-1.7,0.8c-0.5-0.3-1-1.1-1.1-1.7
		c-0.1-0.5,0.3-1.2,0.5-1.8c0.7-2,0.2-3.6-1.4-4.9c-1.4-1.1-2.8-2.1-4.4-3.3c-2.9,7.8-5.6,15.5-8.6,23.7c2.5,0,4.7,0.3,6.8-0.1
		c1.1-0.2,2.2-1.5,3-2.6c0.8-1.1,0.9-2.7,1.6-3.9c0.4-0.6,1.3-0.8,2-1.2c0.3,0.7,1,1.5,0.8,2.1c-1,2.8-1.5,5.9-4.2,7.8
		c-0.5,0.4-0.8,1.1-1.1,1.7c-1.3,3-2.4,6.1-3.7,9.2c-2.7,6.4-7.7,9.6-14.6,9.8c-0.8,0-1.5,0-2.3,0c-2.3-0.1-4.3,0.2-6.2,2
		c-3.3,3.1-8.7,2.3-11.7-1.2c-2.9-3.5-2.7-8.7,0.6-11.8c3.3-3.2,8.6-3.4,11.8-0.1c1.2,1.2,2.5,1.5,4.1,1.5c8-0.1,8.1,0,11-7.5
		C138,137.4,138,136.5,138.1,135.7c0,0.1,0,0.1,0,0.1C138.2,135.8,138.1,135.7,138.1,135.7z M67.4,87.3c3.1,0.3,3.1,0.3,3.8-1.5
		c7.7-19.9,26.9-30.9,47.9-27.4c21.7,3.6,37.7,25.3,34.7,47.1c-0.5,3.4-0.4,3.5,2.4,4.7c5.9-24.7-10.3-49.8-36-54.9
		C92.5,49.9,72,69.3,67.4,87.3z M146.3,105.5c0-2.1-1.2-3.5-3-3.8c-1.8-0.3-3.4,0.6-4.1,2.5c-3.2,8.6-6.3,17.2-9.4,25.8
		c-0.2,0.7-0.3,1.5-0.2,2.2c0.4,1.7,1.6,2.7,3.3,2.8c1.9,0.1,3.1-1,3.7-2.8c3.1-8.5,6.2-17,9.2-25.4
		C146.1,106.3,146.2,105.7,146.3,105.5z M122.3,150.4c0-3-2.5-5.5-5.5-5.4c-3,0-5.5,2.6-5.4,5.5c0,3,2.5,5.4,5.5,5.4
		C120,155.9,122.3,153.4,122.3,150.4z M125.6,152c2.2,0,4.3,0.1,6.3,0c4.2-0.3,7.5-2.2,9.4-5.8c1.7-3.2,2.9-6.6,4.3-10
		c-3.4-0.7-3.4-0.7-4.5,2.1c-0.6,1.5-1.2,3-1.8,4.5c-1.6,4.1-4.6,6-8.9,6c-1.6,0-3.2,0-4.8,0C125.6,150,125.6,150.9,125.6,152z"/>
	<path class="st1" d="M90.1,116.1c-6.8,0-13.6,0-20.4,0c-0.6,0-1.2,0.1-1.7-0.1c-0.5-0.3-1.2-0.9-1.2-1.5c0-0.5,0.6-1.2,1.1-1.5
		c0.5-0.3,1.2-0.2,1.9-0.2c13.6,0,27.2,0,40.8,0c0.4,0,0.8-0.1,1,0c0.7,0.5,1.9,1,2,1.6c0.2,1.3-1,1.6-2.1,1.6
		C104.4,116.1,97.2,116.1,90.1,116.1z"/>
	<path class="st1" d="M90.2,105.2c6.8,0,13.6,0,20.4,0c0.6,0,1.4-0.1,1.9,0.1c0.5,0.3,1.2,0.9,1.2,1.5c0,0.5-0.6,1.2-1.1,1.5
		c-0.5,0.3-1.2,0.2-1.9,0.2c-13.6,0-27.2,0-40.8,0c-0.1,0-0.1,0-0.2,0c-1.2,0-2.8,0.2-2.9-1.6c0-1.8,1.5-1.7,2.8-1.7
		C76.4,105.2,83.3,105.2,90.2,105.2z"/>
	<path class="st1" d="M86.7,120.7c5.8,0,11.5,0,17.3,0c1.2,0,2.5,0,2.5,1.5c0,1.5-1.2,1.6-2.4,1.6c-11.7,0-23.3,0-35,0
		c-1.2,0-2.5,0-2.4-1.6c0-1.6,1.4-1.5,2.5-1.5C75.1,120.7,80.9,120.7,86.7,120.7z"/>
	<path class="st1" d="M138.1,135.7c0,0,0,0.1,0,0.1C138.1,135.8,138.1,135.8,138.1,135.7C138.1,135.7,138.1,135.7,138.1,135.7z"/>
</g>
</svg>
