<?xml version="1.0" encoding="utf-8"?>
<!-- Generator: Adobe Illustrator 28.1.0, SVG Export Plug-In . SVG Version: 6.00 Build 0)  -->
<svg version="1.1" id="Layer_1" xmlns="http://www.w3.org/2000/svg" xmlns:xlink="http://www.w3.org/1999/xlink" x="0px" y="0px"
	 viewBox="0 0 214.7 214.7" style="enable-background:new 0 0 214.7 214.7;" xml:space="preserve">
<style type="text/css">
	.st0{fill:#FFFFFF;}
	.st1{fill:none;stroke:#A37F41;stroke-width:1.5;stroke-miterlimit:10;}
</style>
<g>
	<path class="st0" d="M106.3,52.3c-1.3,1.4-2.5,2.8-3.8,4.2c-0.8,0.9-1.8,1.5-2.8,0.5c-1.1-1-0.5-1.9,0.4-2.8
		c2.2-2.2,4.3-4.3,6.5-6.5c1.3-1.3,2.7-1.4,4-0.1c2.3,2.2,4.6,4.5,6.8,6.8c0.5,0.5,0.3,1.6,0.4,2.5c-0.9-0.1-2.1,0.2-2.6-0.2
		c-1.6-1.3-2.9-2.8-4.8-4.1c0,1.8,0,3.7,0,5.5c0,4.7,0.1,9.5,0,14.2c0,1.5,0.4,2.3,1.8,3.1c8.8,4.8,17.5,9.8,26.3,14.6
		c1.7,0.9,2.4,2,2.4,4c-0.1,4.1,0,8.1,0,12.2c0,1.2,0,2.5-1.6,2.5c-1.6,0-1.7-1.3-1.7-2.5c0-3.3,0-6.6,0-10.3
		c-1,0.5-1.7,0.8-2.4,1.2c-7.2,4-14.5,8.1-21.7,12.1c-3.4,1.9-3.4,1.9-2.8,6c12.4,3.8,14.2,5.5,19,16.7c2.4-1.3,4.7-2.6,7-4
		c0.5-0.3,0.8-1.3,0.9-2c0.1-3.5,0.1-7,0-10.5c0-1.2,0.1-2.3,1.6-2.4c1.5-0.1,1.7,1.1,1.7,2.3c0,3.4-0.1,6.8,0,10.3
		c0,0.7,0.5,1.8,1,2.1c6,3.4,12,6.8,18.5,10.4c-0.6-2.2-1-4.1-1.6-5.9c-0.4-1.2-0.6-2.4,0.9-2.8c1.5-0.4,1.9,0.8,2.3,2
		c0.8,2.7,1.6,5.4,2.3,8.2c0.6,2.2,0,3.4-2.1,4c-2.9,0.9-5.8,1.8-8.8,2.4c-0.7,0.2-1.6-0.6-2.5-0.9c0.5-0.7,0.9-1.8,1.6-2.1
		c1.8-0.8,3.8-1.2,6.3-1.9c-3.4-1.9-6.3-3.6-9.3-5.2c-3-1.7-5.9-3.4-9-4.9c-0.6-0.3-1.6-0.2-2.3,0c-0.7,0.2-1.3,0.7-1.9,1
		c-3.9,1.9-6.5,4-7.2,9.2c-1.5,10.5-11.6,17.3-22.1,16.5c-10.4-0.8-18.7-9.2-19.3-19.7c-0.1-1.7-0.6-2.8-2.2-3.5
		c-2.2-1-4.2-2.4-6.3-3.5c-0.6-0.3-1.6-0.4-2.1-0.1c-6,3.3-12,6.6-18.4,10.2c2.2,0.7,4,1.2,5.9,1.8c1.2,0.3,2.4,0.8,1.9,2.3
		c-0.5,1.6-1.7,1.2-2.9,0.8c-2.7-0.8-5.5-1.5-8.2-2.3c-2.3-0.7-2.9-1.8-2.2-4.1c0.8-2.8,1.6-5.6,2.4-8.4c0.3-1.1,0.8-2.2,2.2-1.8
		c1.4,0.4,1.4,1.5,1,2.7c-0.6,1.9-1,3.7-1.7,6c0.9-0.5,1.6-0.7,2.2-1.1c5.1-2.9,10.3-5.8,15.5-8.6c1.5-0.8,2-1.7,2-3.4
		c-0.1-10.3,0-20.5-0.1-30.8c0-2.1,0.6-3.4,2.5-4.3c3.4-1.7,6.7-3.7,10.1-5.6c1.1-0.6,2.4-1.1,2.9,0.4c0.2,0.6-0.6,2-1.3,2.4
		c-3,1.9-6.2,3.5-9.5,5.4c0.5,0.4,0.9,0.7,1.3,0.9c8.3,4.6,16.5,9.2,24.8,13.8c0.6,0.4,1.8,0.5,2.3,0.2c8.7-4.8,17.4-9.7,26.1-14.5
		c0.1,0,0.1-0.1,0.2-0.3c-0.5-0.3-1-0.7-1.6-1c-8-4.5-16-8.9-24-13.4c-1.2-0.7-2.1-0.8-3.4,0c-3,1.8-6.1,3.4-9.1,5.1
		c-1,0.6-2.1,0.9-2.8-0.4c-0.7-1.3,0.2-2,1.2-2.6c3.1-1.7,6.2-3.4,9.3-5.2c0.6-0.3,1.3-1.1,1.3-1.7c0.1-6.9,0.1-13.8,0.1-20.7
		C106.8,52.6,106.6,52.5,106.3,52.3z M108.7,118.7c-9.9,0-17.9,8-17.8,17.9c0,9.8,8,17.7,17.8,17.7c9.9,0,17.9-8,17.9-17.8
		C126.6,126.7,118.6,118.7,108.7,118.7z M106.8,115.3c0.4-4.3,0.4-4.3-3.1-6.2c-7.2-4-14.3-8-21.5-12c-0.7-0.4-1.4-0.7-2.3-1.2
		c0,10.5,0,20.6,0,30.8c0,0.4,0.3,1,0.7,1.2c2.4,1.4,4.8,2.7,7.3,4.1C90.7,122.3,97,116.8,106.8,115.3z"/>
	<path class="st0" d="M109.5,136.4c0-1.6-0.2-3.2,0.1-4.8c0.1-0.8,0.9-2,1.6-2.2c5.5-1.8,9.4,1.2,9.4,6.9c0,2.8-0.1,5.6-3,6.6
		c-2,0.7-4.4,0.6-6.6,0.5c-0.5,0-1.3-1.4-1.4-2.3C109.4,139.7,109.5,138,109.5,136.4z M112.9,141.1c1.7-0.7,3.7-1,3.9-1.8
		c0.5-1.7,0.4-3.9-0.1-5.6c-0.2-0.8-2.3-0.9-3.8-1.4C112.9,135.3,112.9,137.7,112.9,141.1z"/>
	<path class="st0" d="M103.4,140.5c0-0.9,0-1.5,0-2.4c-1.6,0-3.1,0-4.6,0c-1.2,0-2.2-0.4-1.9-1.7c0.1-0.6,1.2-1.4,1.9-1.5
		c1.4-0.2,2.9-0.1,4.5-0.1c0-0.8,0.1-1.5,0.1-2.4c-1.7,0-3.3,0.2-4.7-0.1c-0.7-0.1-1.3-1-1.9-1.5c0.6-0.5,1.2-1.5,1.9-1.6
		c1.6-0.2,3.3-0.1,5-0.1c1.9,0,3,1.1,3.1,2.9c0.1,2.8,0.1,5.7,0,8.5c-0.1,1.8-1.1,3-3,3c-1.7,0-3.4,0.2-5-0.1c-0.7-0.1-1.3-1-2-1.5
		c0.6-0.6,1.2-1.5,1.9-1.6C100.1,140.3,101.7,140.5,103.4,140.5z"/>
</g>
<path id="Path_37" class="st1" d="M34.8,168.4C0.9,127.6,6.4,67,47.2,33S148.6,4.7,182.6,45.5s28.4,101.4-12.4,135.3
	c0,0,0,0-0.1,0.1l0,0c-40.7,33.9-101.3,28.4-135.2-12.4C34.9,168.4,34.9,168.4,34.8,168.4L34.8,168.4"/>
</svg>
