<?xml version="1.0" encoding="utf-8"?>
<!-- Generator: Adobe Illustrator 28.1.0, SVG Export Plug-In . SVG Version: 6.00 Build 0)  -->
<svg version="1.1" id="Layer_1" xmlns="http://www.w3.org/2000/svg" xmlns:xlink="http://www.w3.org/1999/xlink" x="0px" y="0px"
	 viewBox="0 0 214.7 214.7" style="enable-background:new 0 0 214.7 214.7;" xml:space="preserve">
<style type="text/css">
	.st0{fill:none;stroke:#A37F41;stroke-width:1.5;stroke-miterlimit:10;}
	.st1{fill:#FFFFFF;}
</style>
<path id="Path_37" class="st0" d="M33,168.4C-1,127.6,4.6,67,45.4,33S146.8,4.7,180.7,45.5s28.4,101.4-12.4,135.3c0,0,0,0-0.1,0.1
	l0,0C127.5,214.8,67,209.2,33.1,168.5C33,168.4,33,168.4,33,168.4L33,168.4"/>
<g>
	<path class="st1" d="M70.7,81.8c7-2.3,13.7-3.6,20.5-2.5c4.1,0.6,8.1,1.9,12.1,2.8c1,0.2,2.2,0.2,3.3,0c4.3-1.1,8.5-2.4,12.8-3.5
		c1.2-0.3,2.8-0.5,3,1.3c0.3,1.8-1.3,1.8-2.5,2.1c-3.5,0.7-7,1.5-11,2.4c9,6.3,25.6,7.3,36,2c-4.3-2.4-8.8-3.7-13.5-4.4
		c-0.7-0.1-1.5-0.2-2.2-0.3c-1.2-0.1-2.3-0.4-2.1-1.9c0.2-1.5,1.4-1.5,2.6-1.4c5.4,0.5,10.7,1.9,15.6,4.2c0.5,0.3,1.1,0.5,1.6,0.7
		c0.1,0,0.3,0,0.6,0c0.2-3.6,0.4-7.2,0.6-10.8c0-0.7-0.1-1.6,0.2-2.2c0.3-0.6,1.1-1.3,1.7-1.3c0.6,0,1.2,0.9,1.5,1.5
		c0.2,0.6,0,1.3,0,2c-1,26.8-5.1,53.2-10.3,79.4c-0.4,2.1-0.8,4.2-1.2,6.3c-0.7,3.2-3,5.2-6.3,5.2c-16.3,0-32.7,0-49,0
		c-3.2,0-5.6-2-6.1-5.1c-2.6-14.3-5.1-28.6-7.5-43c-0.2-1.3-1.1-3.3,1.1-3.7c2.4-0.4,2,1.9,2.2,3.3c1.8,10.4,3.6,20.8,5.4,31.1
		c0.5,2.8,2,4,4.9,4.1c1.7,0.1,3.4,0,5.1,0c1.2,0,2.5,0.4,2.2,1.8c-0.1,0.7-1.4,1.5-2.2,1.6c-2.8,0.2-5.6,0.1-8.7,0.1
		c0.3,1.4,0.4,3.2,1.1,4.7c0.4,0.8,1.8,1.5,2.8,1.7c2,0.3,4.2,0.1,6.2,0.1c13.2,0,26.3,0,39.5,0c5.3,0,6,0.7,6.6-6.5
		c-12.3,0-24.7,0-37.1,0c-0.7,0-1.4,0.2-2-0.1c-0.6-0.3-1.4-1.1-1.4-1.6c0-0.6,0.8-1.3,1.4-1.6c0.5-0.3,1.3-0.1,2-0.1
		c10.8,0,21.7,0,32.5,0c4.3,0,5.7-1,6.3-5.2c2.6-16.7,5-33.4,7.5-50.2c0.2-1.7,0.3-3.4,0.4-5.3c-2.4,0.8-4.6,1.6-6.8,2.1
		c-11.6,2.9-22.7,1.4-33.2-4.2c-10.7-5.7-21.8-6.7-33.4-3c-1.7,0.5-2.4,1.2-2.2,3.1c0.6,5.4,1.1,10.8,1.6,16.2
		c0,0.2,0.1,0.4,0.1,0.7c0.2,1.2,0.1,2.4-1.4,2.6c-1.6,0.2-1.9-1-2-2.3c-0.6-6.1-1.4-12.3-1.7-18.4c-0.6-10.4-0.9-20.8-1.2-31.2
		c-0.1-4.4,1.2-5.7,5.6-5.7c24.7,0,49.3,0,74,0c4.3,0,5.6,1.3,5.5,5.6c0,2.4,0,4.8-0.2,7.1c-0.1,0.8-1,1.5-1.6,2.2
		c-0.5-0.7-1.5-1.4-1.6-2.2c-0.2-2.4-0.2-4.8,0-7.1c0.1-1.8-0.6-2.3-2.3-2.3c-6.4,0.1-12.8,0-19.2,0c-18.1,0-36.1,0-54.2,0
		c-2.9,0-2.9,0-2.9,2.9C70.2,64.3,70.4,72.9,70.7,81.8z"/>
	<path class="st1" d="M111.5,137.9c0,4.1-3.3,7.5-7.4,7.6c-4,0-7.4-3.3-7.4-7.3c-0.1-4.2,3.2-7.6,7.3-7.7
		C108,130.5,111.4,133.8,111.5,137.9z M103.9,142.1c2.3,0.1,4.1-1.7,4.2-4c0.1-2.3-1.7-4.1-4-4.2c-2.3,0-4.2,1.7-4.2,4
		C99.8,140.1,101.7,142,103.9,142.1z"/>
	<path class="st1" d="M124.3,125.7c-3.4,0-6.1-2.7-6.1-6c0-3.2,2.7-5.9,6-6c3.3,0,6.1,2.7,6,6.1
		C130.2,123.1,127.7,125.7,124.3,125.7z M121.7,119.6c0.1,1.7,1,2.7,2.6,2.7c1.6,0,2.6-1.1,2.6-2.7c0-1.5-0.9-2.5-2.5-2.5
		C122.7,117.1,121.9,118.1,121.7,119.6z"/>
	<path class="st1" d="M108.6,108.4c0,2.7-2.2,5-4.9,5c-2.7,0.1-5.1-2.3-5.1-5c0-2.8,2.4-5.1,5.1-5
		C106.3,103.4,108.6,105.7,108.6,108.4z M101.3,108.3c1,0.8,1.6,1.7,2.1,1.6c0.7-0.1,1.2-0.9,1.8-1.4c-0.5-0.6-1-1.4-1.7-1.6
		C103,106.8,102.3,107.6,101.3,108.3z"/>
	<path class="st1" d="M88.1,89.8c2.7,0,4.9,2.2,5,4.9c0,2.8-2.2,5.1-5.1,5.1c-2.7,0-4.9-2.2-5-4.9C83,92.1,85.3,89.8,88.1,89.8z
		 M90.3,94.9c-0.9-0.8-1.6-1.7-2.1-1.6c-0.7,0.1-1.2,1-1.8,1.5c0.6,0.6,1,1.4,1.7,1.6C88.6,96.4,89.3,95.6,90.3,94.9z"/>
</g>
</svg>
