<?xml version="1.0" encoding="UTF-8"?>
<svg id="Layer_1" xmlns="http://www.w3.org/2000/svg" version="1.1" viewBox="0 0 214.7 214.7">
  <!-- Generator: Adobe Illustrator 29.1.0, SVG Export Plug-In . SVG Version: 2.1.0 Build 142)  -->
  <defs>
    <style>
      .st0 {
        fill: none;
        stroke: #a37f41;
        stroke-width: 3.5px;
      }

      .st0, .st1 {
        stroke-miterlimit: 10;
      }

      .st1 {
        fill: #fff;
        stroke: #fff;
      }
    </style>
  </defs>
  <path id="Path_37" class="st0" d="M33,168.4C-1,127.6,4.6,67,45.4,33,86.2-1,146.8,4.7,180.7,45.5c33.9,40.8,28.4,101.4-12.4,135.3h-.1c-40.7,34-101.2,28.4-135.1-12.3h0"/>
  <g>
    <path class="st1" d="M70.7,81.8c7-2.3,13.7-3.6,20.5-2.5,4.1.6,8.1,1.9,12.1,2.8,1,.2,2.2.2,3.3,0,4.3-1.1,8.5-2.4,12.8-3.5,1.2-.3,2.8-.5,3,1.3.3,1.8-1.3,1.8-2.5,2.1-3.5.7-7,1.5-11,2.4,9,6.3,25.6,7.3,36,2-4.3-2.4-8.8-3.7-13.5-4.4-.7,0-1.5-.2-2.2-.3-1.2,0-2.3-.4-2.1-1.9.2-1.5,1.4-1.5,2.6-1.4,5.4.5,10.7,1.9,15.6,4.2.5.3,1.1.5,1.6.7h.6c.2-3.6.4-7.2.6-10.8,0-.7-.1-1.6.2-2.2s1.1-1.3,1.7-1.3,1.2.9,1.5,1.5c.2.6,0,1.3,0,2-1,26.8-5.1,53.2-10.3,79.4-.4,2.1-.8,4.2-1.2,6.3-.7,3.2-3,5.2-6.3,5.2h-49c-3.2,0-5.6-2-6.1-5.1-2.6-14.3-5.1-28.6-7.5-43-.2-1.3-1.1-3.3,1.1-3.7,2.4-.4,2,1.9,2.2,3.3,1.8,10.4,3.6,20.8,5.4,31.1.5,2.8,2,4,4.9,4.1,1.7.1,3.4,0,5.1,0s2.5.4,2.2,1.8c0,.7-1.4,1.5-2.2,1.6-2.8.2-5.6.1-8.7.1.3,1.4.4,3.2,1.1,4.7.4.8,1.8,1.5,2.8,1.7,2,.3,4.2.1,6.2.1h39.5c5.3,0,6,.7,6.6-6.5h-37.1c-.7,0-1.4.2-2-.1s-1.4-1.1-1.4-1.6.8-1.3,1.4-1.6c.5-.3,1.3-.1,2-.1h32.5c4.3,0,5.7-1,6.3-5.2,2.6-16.7,5-33.4,7.5-50.2.2-1.7.3-3.4.4-5.3-2.4.8-4.6,1.6-6.8,2.1-11.6,2.9-22.7,1.4-33.2-4.2-10.7-5.7-21.8-6.7-33.4-3-1.7.5-2.4,1.2-2.2,3.1.6,5.4,1.1,10.8,1.6,16.2,0,.2,0,.4,0,.7.2,1.2,0,2.4-1.4,2.6-1.6.2-1.9-1-2-2.3-.6-6.1-1.4-12.3-1.7-18.4-.6-10.4-.9-20.8-1.2-31.2,0-4.4,1.2-5.7,5.6-5.7h74c4.3,0,5.6,1.3,5.5,5.6,0,2.4,0,4.8-.2,7.1-.1.8-1,1.5-1.6,2.2-.5-.7-1.5-1.4-1.6-2.2-.2-2.4-.2-4.8,0-7.1.1-1.8-.6-2.3-2.3-2.3-6.4,0-12.8,0-19.2,0h-54.2q-2.9,0-2.9,2.9c.4,8.7.6,17.3.9,26.2Z"/>
    <path class="st1" d="M111.5,137.9c0,4.1-3.3,7.5-7.4,7.6-4,0-7.4-3.3-7.4-7.3,0-4.2,3.2-7.6,7.3-7.7,4,0,7.4,3.3,7.5,7.4ZM103.9,142.1c2.3.1,4.1-1.7,4.2-4s-1.7-4.1-4-4.2c-2.3,0-4.2,1.7-4.2,4,0,2.2,1.8,4.1,4,4.2Z"/>
    <path class="st1" d="M124.3,125.7c-3.4,0-6.1-2.7-6.1-6s2.7-5.9,6-6c3.3,0,6.1,2.7,6,6.1,0,3.3-2.5,5.9-5.9,5.9ZM121.7,119.6c0,1.7,1,2.7,2.6,2.7s2.6-1.1,2.6-2.7-.9-2.5-2.5-2.5-2.5,1-2.7,2.5Z"/>
    <path class="st1" d="M108.6,108.4c0,2.7-2.2,5-4.9,5-2.7,0-5.1-2.3-5.1-5s2.4-5.1,5.1-5c2.6,0,4.9,2.3,4.9,5ZM101.3,108.3c1,.8,1.6,1.7,2.1,1.6.7,0,1.2-.9,1.8-1.4-.5-.6-1-1.4-1.7-1.6-.5,0-1.2.7-2.2,1.4Z"/>
    <path class="st1" d="M88.1,89.8c2.7,0,4.9,2.2,5,4.9,0,2.8-2.2,5.1-5.1,5.1s-4.9-2.2-5-4.9c0-2.8,2.3-5.1,5.1-5.1ZM90.3,94.9c-.9-.8-1.6-1.7-2.1-1.6-.7,0-1.2,1-1.8,1.5.6.6,1,1.4,1.7,1.6.5,0,1.2-.8,2.2-1.5Z"/>
  </g>
</svg>