<?xml version="1.0" encoding="UTF-8"?>
<svg id="Capa_1" data-name="Capa 1" xmlns="http://www.w3.org/2000/svg" viewBox="0 0 28.4 28.4">
  <defs>
    <style>
      .cls-1 {
        stroke-width: 0px;
      }
    </style>
  </defs>
  <path class="cls-1" d="M27.01,0c.07.02.14.05.21.07.73.23,1.2.9,1.18,1.66-.03.74-.56,1.38-1.28,1.55-.74.17-1.49-.16-1.85-.84-.07-.12-.1-.23-.29-.22-1.77.01-3.53,0-5.3,0-.03,0-.05,0-.12.01,4.2,2.06,6.83,5.3,7.64,9.97.19,0,.4,0,.61,0,.35.01.58.22.58.57,0,.73,0,1.46,0,2.19,0,.33-.23.56-.56.56-.73,0-1.46,0-2.19,0-.36,0-.57-.24-.57-.61,0-.68,0-1.37,0-2.05,0-.46.2-.66.66-.66.1,0,.2,0,.3,0-.6-4.78-4.87-9.17-10.17-9.85,0,.14,0,.28,0,.41-.02.32-.23.55-.54.55-.75.01-1.5.01-2.25,0-.31,0-.52-.24-.54-.56,0-.14,0-.27,0-.41C7.46,3.03,3.08,7.1,2.35,12.2c.14,0,.27,0,.41,0,.34.01.56.22.57.56,0,.74,0,1.48,0,2.22,0,.32-.23.54-.55.55-.74.01-1.48,0-2.22,0-.28,0-.43-.18-.56-.39v-2.55c.26-.55.79-.34,1.19-.4.81-4.66,3.45-7.9,7.66-9.97H3.24c-.03.06-.06.12-.09.18-.32.62-.97.99-1.64.91-.72-.08-1.2-.49-1.44-1.17-.02-.07-.05-.14-.07-.21v-.55C.19.65.65.19,1.39,0h.55c.6.17,1.06.5,1.29,1.09h9.31c0-.42-.09-.86.39-1.09h2.55c.49.23.37.7.39,1.1h9.29C25.39.5,25.85.16,26.46,0,26.64,0,26.83,0,27.01,0ZM14.73,2.21v-1.08h-1.08v1.08h1.08ZM2.21,13.33h-1.08v1.07h1.08v-1.07ZM26.2,13.32v1.08h1.07v-1.08h-1.07ZM2.22,1.66c0-.29-.25-.54-.55-.54-.31,0-.56.26-.56.56,0,.3.25.54.55.54.31,0,.56-.26.56-.56ZM26.74,1.11c-.29,0-.55.23-.56.53-.01.31.24.57.54.58.31,0,.56-.25.56-.56,0-.29-.25-.54-.54-.55Z"/>
  <path class="cls-1" d="M14.18,28.4c-1.42,0-2.85,0-4.27,0-.57,0-.79-.28-.65-.83.33-1.35.67-2.7,1.01-4.06.01-.05.04-.11.04-.16.15-2.42-.19-4.69-2.01-6.5-.25-.24-.26-.45-.1-.75,1.82-3.4,3.65-6.8,5.48-10.2.11-.21.27-.35.52-.35.25,0,.41.14.52.35,1.83,3.4,3.65,6.8,5.48,10.2.17.32.14.51-.14.79-1.05,1.09-1.71,2.39-1.9,3.89-.17,1.34-.13,2.68.27,4,.29.93.48,1.89.72,2.84.12.48-.12.77-.61.78-1.45,0-2.9,0-4.35,0ZM13.64,8.43h-.05s-.04.05-.06.08c-1.37,2.55-2.74,5.09-4.11,7.63-.08.15-.03.23.05.36.4.59.84,1.18,1.17,1.81.66,1.28.83,2.67.78,4.09,0,.14,0,.29,0,.43h5.55c0-.42,0-.82,0-1.23.05-1.92.69-3.61,1.92-5.08.14-.17.14-.27.04-.45-1.34-2.48-2.67-4.96-4-7.44-.04-.08-.09-.15-.17-.28v6.48s.08.05.12.07c.75.38,1.1,1.11.92,1.88-.17.75-.83,1.28-1.6,1.29-.77,0-1.45-.52-1.63-1.25-.19-.78.15-1.53.89-1.9.14-.07.17-.15.17-.3,0-2.02,0-4.03,0-6.05,0-.05,0-.11,0-.16ZM11.3,23.96c-.28,1.11-.55,2.21-.83,3.32h7.45c-.07-.29-.16-.56-.2-.84-.04-.2-.12-.27-.33-.26-.68.01-1.37,0-2.05,0-.34,0-.58-.23-.58-.54,0-.32.24-.56.59-.56.52,0,1.03,0,1.55,0,.15,0,.3,0,.48,0-.08-.32-.17-.59-.22-.87-.03-.2-.13-.24-.32-.24-1.51,0-3.03,0-4.54,0-.32,0-.64,0-.99,0ZM14.22,15.87c-.29-.01-.55.22-.57.52-.02.3.22.58.53.59.3.01.57-.24.57-.54,0-.29-.24-.55-.53-.56Z"/>
  <path class="cls-1" d="M13.64,25.63c0,.31-.27.56-.57.55-.29-.01-.54-.26-.53-.56,0-.31.27-.56.57-.55.3.01.54.26.53.56Z"/>
</svg>