<?xml version="1.0" encoding="utf-8"?>
<!-- Generator: Adobe Illustrator 28.1.0, SVG Export Plug-In . SVG Version: 6.00 Build 0)  -->
<svg version="1.1" id="Capa_1" xmlns="http://www.w3.org/2000/svg" xmlns:xlink="http://www.w3.org/1999/xlink" x="0px" y="0px"
	 viewBox="0 0 2217.4 1179" style="enable-background:new 0 0 2217.4 1179;" xml:space="preserve">
<style type="text/css">
	.st0{fill-rule:evenodd;clip-rule:evenodd;fill:#FFFFFF;}
</style>
<g>
	<path class="st0" d="M1250,903.9c-21.1,0-38.3-17.2-38.3-38.3c0-21.1,17.2-38.3,38.3-38.3c21.1,0,38.3,17.2,38.3,38.3
		C1288.2,886.8,1271.1,903.9,1250,903.9L1250,903.9z M1250,776.2c-49.4,0-89.4,40.1-89.4,89.5c0,49.4,40,89.4,89.4,89.4
		c49.4,0,89.4-40,89.4-89.4C1339.4,816.3,1299.4,776.2,1250,776.2z"/>
	<path class="st0" d="M1967.5,899.8c-21.2,0-38.3-17.2-38.3-38.3c0-21.1,17.2-38.3,38.3-38.3c21.1,0,38.3,17.2,38.3,38.3
		C2005.8,882.6,1988.6,899.8,1967.5,899.8L1967.5,899.8z M1967.5,772.1c-49.4,0-89.4,40.1-89.4,89.5c0,49.4,40.1,89.4,89.4,89.4
		c49.4,0,89.3-40,89.3-89.4C2056.8,812.2,2016.9,772.1,1967.5,772.1z"/>
	<path class="st0" d="M930.5,845.6c0.3-17.3-13.2-31.9-31.9-31.9c-23,0-35.5,15.6-36.9,31.9H930.5L930.5,845.6z M974.6,919.9
		c-16.6,21.2-44.1,33.4-71.1,33.4c-52.1,0-93.7-34.6-93.7-88.5c0-53.8,41.6-88.5,93.7-88.5c48.6,0,79.1,34.8,79.1,88.5V881H861.7
		c4.2,19.8,19.2,32.6,39.3,32.6c17,0,28.5-8.6,37.1-20.5L974.6,919.9z"/>
	<path class="st0" d="M1120.4,835c-5.3-7.4-15-12.8-25.7-12.8c-26,0-41.7,17.3-41.7,42.6c0,25.4,15.6,42.7,41.7,42.7
		c11.4,0,19.7-6,25.7-12.8l34.4,36.1c-16.4,16.5-40.3,22.5-60.1,22.5c-52.1,0-93.8-34.6-93.8-88.5c0-53.8,41.7-88.5,93.8-88.5
		c19.7,0,43.7,6,60.1,22.6L1120.4,835z"/>
	<polygon class="st0" points="1342.1,780.4 1398.2,780.4 1440.9,895 1441.6,895 1481.3,780.4 1533.7,780.4 1466.9,949.2 
		1411.8,949.2 	"/>
	<path class="st0" d="M1636,875.1c-16.1,0-51.5,1.4-51.5,24.4c0,12.6,13.3,18.4,24.8,18.4c20.4,0,39.6-10.8,39.6-31.6v-11.2H1636
		L1636,875.1z M1648.8,927.8h-0.7c-11.5,18.2-32.4,25.4-53.4,25.4c-31.7,0-60.2-17.9-60.2-52c0-58.4,70.9-59.4,114.3-59.4
		c0-18.4-15.3-30.2-33.3-30.2c-17,0-31.3,7.7-42.3,20.1l-27.8-28.5c19.1-18.1,46.8-27.1,74.2-27.1c60.7,0,77.2,31,77.2,87v85.9h-48
		V927.8z"/>
	<path class="st0" d="M1821.4,830c-7.6-9.4-17.7-14.3-30.2-14.3c-8.7,0-19.2,3.9-19.2,13.8c0,25,87.9,3.9,87.9,68.1
		c0,43.1-41.7,55.5-77.8,55.5c-23.5,0-49.7-6-66.3-22.8l31.7-35.1c9.5,11.8,21.1,18.4,36.7,18.4c11.7,0,23.6-3.1,23.6-12.2
		c0-27.1-87.8-4.1-87.8-68.3c0-39.6,35.4-57,70.8-57c22.2,0,46.8,5.7,62.4,22.3L1821.4,830z"/>
	<path class="st0" d="M2178.8,830c-7.7-9.4-17.7-14.3-30.2-14.3c-8.7,0-19,3.9-19,13.8c0,25,87.8,3.9,87.8,68.1
		c0,43.1-41.7,55.5-77.8,55.5c-23.6,0-49.7-6-66.3-22.8l31.6-35.1c9.7,11.8,21.2,18.4,36.8,18.4c11.7,0,23.5-3.1,23.5-12.2
		c0-27.1-87.8-4.1-87.8-68.3c0-39.6,35.4-57,70.8-57c22.3,0,46.9,5.7,62.5,22.3L2178.8,830z"/>
	<g>
		<path class="st0" d="M1957,558.5c-60.9,0-110.4-49.5-110.4-110.5c0-61.2,49.5-110.7,110.4-110.7c61.1,0,110.8,49.5,110.8,110.7
			C2067.8,509,2018.1,558.5,1957,558.5L1957,558.5z M1957,189.7c-142.7,0-258.2,115.6-258.2,258.3c0,142.5,115.5,258.2,258.2,258.2
			c142.8,0,258.3-115.8,258.3-258.2C2215.3,305.3,2099.8,189.7,1957,189.7z"/>
		<path class="st0" d="M1581.3,189.7c-61.1,0-110.6,49.5-110.6,110.6c0,61.1,49.5,110.8,110.6,110.8c61.2,0,110.6-49.7,110.6-110.8
			C1691.9,239.1,1642.4,189.7,1581.3,189.7z"/>
		<path class="st0" d="M1104.3,392.7c1-50.1-38.2-92.3-92.2-92.3c-66.2,0-102.3,45.1-106.3,92.3H1104.3L1104.3,392.7z M1231.5,607.3
			c-48.1,61.1-127.2,96.3-205.5,96.3c-150.4,0-270.7-100.3-270.7-255.6c0-155.5,120.3-255.8,270.7-255.8
			c140.3,0,228.5,100.3,228.5,255.8v47H905.7c12.2,57.1,55.1,94.1,113.3,94.1c49.2,0,82.3-25,107.2-59L1231.5,607.3z"/>
		<rect x="1331.7" y="204.3" class="st0" width="150.3" height="487.2"/>
	</g>
	<path class="st0" d="M717.2,358.7C717.2,160.6,556.7,0,358.7,0C160.6,0,0,160.6,0,358.7c0,198.1,160.6,358.8,358.7,358.8
		c41.1,0,80.5-7.2,117.3-19.8l97.6,124.2l129.2-101.2l-87.4-111.6C678.4,544.5,717.2,456.2,717.2,358.7z M356.8,109.3
		c117.1,0,217.3,79.6,243.8,193.5l0.9,3.8l47.2-5.2l-72.2,90.1l-36.2-29v0l-53.9-43.1l56.8-6.3l-1.4-5
		c-23-82.7-99.1-140.4-185-140.4c-91,0-168.4,62.9-187.6,150.8l-22.6-28.3c-1-1.2-2.4-1.9-3.9-2.1c-1.5-0.2-3,0.2-4.2,1.2
		l-27.3,21.9C134,195.3,237.6,109.3,356.8,109.3z M356.8,614.4c-129.6,0-239.2-101.1-249.5-230.2l-0.3-3.6l-55.5-6.1l90.1-72.2
		l32.8,41v0l39.3,49.1l-47.7-5.3l0.8,5.6c14,93.1,95.6,163.3,189.9,163.3c98.6,0,180.9-74.9,191-172l25.5,20.4c0.6,0.5,1.3,0.8,2,1
		c0.1,0,0.1,0,0.2,0c0.5,0.1,1,0.2,1.4,0.2h0c1.8,0,3.4-0.8,4.5-2.2l25.6-32C603,506.2,492.3,614.4,356.8,614.4z"/>
</g>
</svg>
