<svg xmlns="http://www.w3.org/2000/svg" width="14" height="14" viewBox="0 0 14 14"><path d="M12.942,17.55a.73.73,0,1,0-.525-.214A.714.714,0,0,0,12.942,17.55ZM12.3,14.672h1.108a2.152,2.152,0,0,1,.194-.982,3.682,3.682,0,0,1,.681-.865,4.812,4.812,0,0,0,.894-1.138,2.261,2.261,0,0,0,.253-1.04,2.1,2.1,0,0,0-.661-1.633,2.554,2.554,0,0,0-1.789-.6,2.981,2.981,0,0,0-1.7.476,2.758,2.758,0,0,0-1.04,1.312l1.031.428a2.066,2.066,0,0,1,.7-.826,1.8,1.8,0,0,1,1.011-.282,1.451,1.451,0,0,1,.982.311,1.072,1.072,0,0,1,.36.856,1.445,1.445,0,0,1-.214.749,4.341,4.341,0,0,1-.719.846,3.533,3.533,0,0,0-.9,1.167,3.482,3.482,0,0,0-.185,1.225ZM7.167,20A1.2,1.2,0,0,1,6,18.833V7.167A1.2,1.2,0,0,1,7.167,6H18.833A1.2,1.2,0,0,1,20,7.167V18.833A1.2,1.2,0,0,1,18.833,20Zm0-1.167H18.833V7.167H7.167Zm0-11.667v0Z" transform="translate(-6 -6)" fill="#fff"/></svg>